<mxfile host="app.diagrams.net" modified="2024-08-27T13:49:24.481Z" agent="Mozilla/5.0 (Macintosh; Intel Mac OS X 10.15; rv:129.0) Gecko/20100101 Firefox/129.0" version="24.6.4" etag="IqTKQJ8BK9A3Th9OK6vL" type="github">
  <diagram name="Page-1" id="OHPeFFvV-0O6HlcGEO3P">
    <mxGraphModel>
      <root>
        <mxCell id="0" />
        <mxCell id="1" parent="0" />
      </root>
    </mxGraphModel>
  </diagram>
</mxfile>
